<mxfile host="app.diagrams.net" modified="2023-10-08T05:43:11.311Z" agent="Mozilla/5.0 (X11; Ubuntu; Linux x86_64; rv:109.0) Gecko/20100101 Firefox/118.0" etag="xM36LIfifDhhbCQkSAEg" version="22.0.4" type="device">
  <diagram name="Page-1" id="c7LGBWJacnuUtA29aehP">
    <mxGraphModel dx="1050" dy="566" grid="1" gridSize="10" guides="1" tooltips="1" connect="1" arrows="1" fold="1" page="1" pageScale="1" pageWidth="850" pageHeight="1100" math="0" shadow="0">
      <root>
        <mxCell id="0" />
        <mxCell id="1" parent="0" />
        <mxCell id="EDmKbzJHREeL66DPp48K-29" style="edgeStyle=orthogonalEdgeStyle;rounded=0;orthogonalLoop=1;jettySize=auto;html=1;exitX=0.5;exitY=0;exitDx=0;exitDy=0;" edge="1" parent="1" source="EDmKbzJHREeL66DPp48K-3">
          <mxGeometry relative="1" as="geometry">
            <mxPoint x="100" y="200" as="targetPoint" />
          </mxGeometry>
        </mxCell>
        <mxCell id="EDmKbzJHREeL66DPp48K-3" value="Participant" style="rounded=0;whiteSpace=wrap;html=1;" vertex="1" parent="1">
          <mxGeometry x="40" y="400" width="120" height="60" as="geometry" />
        </mxCell>
        <mxCell id="EDmKbzJHREeL66DPp48K-64" style="edgeStyle=orthogonalEdgeStyle;rounded=0;orthogonalLoop=1;jettySize=auto;html=1;exitX=0.5;exitY=1;exitDx=0;exitDy=0;entryX=0;entryY=0.5;entryDx=0;entryDy=0;" edge="1" parent="1" source="EDmKbzJHREeL66DPp48K-4" target="EDmKbzJHREeL66DPp48K-59">
          <mxGeometry relative="1" as="geometry" />
        </mxCell>
        <mxCell id="EDmKbzJHREeL66DPp48K-4" value="&lt;div&gt;(Container)&lt;br&gt;Event-Traits&amp;nbsp;&lt;/div&gt;&lt;div&gt;collection / Pass&lt;br&gt;&lt;/div&gt;" style="rounded=1;whiteSpace=wrap;html=1;" vertex="1" parent="1">
          <mxGeometry x="40" y="460" width="120" height="60" as="geometry" />
        </mxCell>
        <mxCell id="EDmKbzJHREeL66DPp48K-7" value="Weight" style="rounded=1;whiteSpace=wrap;html=1;" vertex="1" parent="1">
          <mxGeometry x="40" y="820" width="120" height="60" as="geometry" />
        </mxCell>
        <mxCell id="EDmKbzJHREeL66DPp48K-8" value="Proof-Of-Interaction" style="rounded=1;whiteSpace=wrap;html=1;" vertex="1" parent="1">
          <mxGeometry x="40" y="900" width="120" height="60" as="geometry" />
        </mxCell>
        <mxCell id="EDmKbzJHREeL66DPp48K-55" style="edgeStyle=orthogonalEdgeStyle;rounded=0;orthogonalLoop=1;jettySize=auto;html=1;exitX=0.5;exitY=1;exitDx=0;exitDy=0;entryX=0.5;entryY=0;entryDx=0;entryDy=0;" edge="1" parent="1" source="EDmKbzJHREeL66DPp48K-10" target="EDmKbzJHREeL66DPp48K-52">
          <mxGeometry relative="1" as="geometry" />
        </mxCell>
        <mxCell id="EDmKbzJHREeL66DPp48K-10" value="&lt;div&gt;Event&amp;nbsp;&lt;/div&gt;&lt;div&gt;registry&lt;/div&gt;" style="rounded=0;whiteSpace=wrap;html=1;" vertex="1" parent="1">
          <mxGeometry x="500" y="300" width="120" height="60" as="geometry" />
        </mxCell>
        <mxCell id="EDmKbzJHREeL66DPp48K-11" value="Traits Interface Description &lt;br&gt;(UI-focus)" style="rounded=0;whiteSpace=wrap;html=1;" vertex="1" parent="1">
          <mxGeometry x="220" y="60" width="120" height="60" as="geometry" />
        </mxCell>
        <mxCell id="EDmKbzJHREeL66DPp48K-35" style="edgeStyle=orthogonalEdgeStyle;rounded=0;orthogonalLoop=1;jettySize=auto;html=1;exitX=0;exitY=0.5;exitDx=0;exitDy=0;entryX=0;entryY=0.5;entryDx=0;entryDy=0;" edge="1" parent="1" source="EDmKbzJHREeL66DPp48K-12" target="EDmKbzJHREeL66DPp48K-4">
          <mxGeometry relative="1" as="geometry">
            <mxPoint x="260" y="310" as="targetPoint" />
            <Array as="points">
              <mxPoint x="250" y="170" />
              <mxPoint x="250" y="230" />
              <mxPoint x="20" y="230" />
              <mxPoint x="20" y="490" />
            </Array>
          </mxGeometry>
        </mxCell>
        <mxCell id="EDmKbzJHREeL66DPp48K-12" value="Trait / Review&lt;br&gt;controller" style="rounded=0;whiteSpace=wrap;html=1;" vertex="1" parent="1">
          <mxGeometry x="220" y="130" width="120" height="60" as="geometry" />
        </mxCell>
        <mxCell id="EDmKbzJHREeL66DPp48K-45" style="edgeStyle=orthogonalEdgeStyle;rounded=0;orthogonalLoop=1;jettySize=auto;html=1;entryX=0.5;entryY=1;entryDx=0;entryDy=0;" edge="1" parent="1" source="EDmKbzJHREeL66DPp48K-52" target="EDmKbzJHREeL66DPp48K-12">
          <mxGeometry relative="1" as="geometry">
            <mxPoint x="532" y="390" as="sourcePoint" />
            <Array as="points">
              <mxPoint x="532" y="370" />
              <mxPoint x="360" y="370" />
              <mxPoint x="360" y="240" />
              <mxPoint x="280" y="240" />
            </Array>
          </mxGeometry>
        </mxCell>
        <mxCell id="EDmKbzJHREeL66DPp48K-21" style="edgeStyle=orthogonalEdgeStyle;rounded=0;orthogonalLoop=1;jettySize=auto;html=1;exitX=1;exitY=0.5;exitDx=0;exitDy=0;entryX=1;entryY=0.5;entryDx=0;entryDy=0;" edge="1" parent="1" source="EDmKbzJHREeL66DPp48K-20" target="EDmKbzJHREeL66DPp48K-10">
          <mxGeometry relative="1" as="geometry">
            <mxPoint x="470" y="90" as="sourcePoint" />
            <mxPoint x="570" y="300" as="targetPoint" />
            <Array as="points">
              <mxPoint x="680" y="90" />
              <mxPoint x="680" y="330" />
              <mxPoint x="620" y="330" />
            </Array>
          </mxGeometry>
        </mxCell>
        <mxCell id="EDmKbzJHREeL66DPp48K-14" value="&lt;div&gt;ENS&amp;nbsp;&lt;/div&gt;&lt;div&gt;records&lt;/div&gt;" style="rounded=0;whiteSpace=wrap;html=1;" vertex="1" parent="1">
          <mxGeometry x="640" y="130" width="80" height="60" as="geometry" />
        </mxCell>
        <mxCell id="EDmKbzJHREeL66DPp48K-38" style="edgeStyle=orthogonalEdgeStyle;rounded=0;orthogonalLoop=1;jettySize=auto;html=1;exitX=0;exitY=0.5;exitDx=0;exitDy=0;entryX=0;entryY=0.5;entryDx=0;entryDy=0;" edge="1" parent="1" source="EDmKbzJHREeL66DPp48K-20" target="EDmKbzJHREeL66DPp48K-10">
          <mxGeometry relative="1" as="geometry">
            <mxPoint x="445" y="90" as="sourcePoint" />
            <mxPoint x="475" y="330" as="targetPoint" />
            <Array as="points">
              <mxPoint x="440" y="90" />
              <mxPoint x="440" y="330" />
            </Array>
          </mxGeometry>
        </mxCell>
        <mxCell id="EDmKbzJHREeL66DPp48K-19" value="Trait Standard &lt;br&gt;Library" style="rounded=0;whiteSpace=wrap;html=1;" vertex="1" parent="1">
          <mxGeometry x="360" y="130" width="120" height="60" as="geometry" />
        </mxCell>
        <mxCell id="EDmKbzJHREeL66DPp48K-20" value="Organizer" style="rounded=0;whiteSpace=wrap;html=1;" vertex="1" parent="1">
          <mxGeometry x="500" y="60" width="120" height="60" as="geometry" />
        </mxCell>
        <mxCell id="EDmKbzJHREeL66DPp48K-65" style="edgeStyle=orthogonalEdgeStyle;rounded=0;orthogonalLoop=1;jettySize=auto;html=1;exitX=1;exitY=0.5;exitDx=0;exitDy=0;entryX=0;entryY=0.5;entryDx=0;entryDy=0;" edge="1" parent="1" source="EDmKbzJHREeL66DPp48K-23" target="EDmKbzJHREeL66DPp48K-56">
          <mxGeometry relative="1" as="geometry" />
        </mxCell>
        <mxCell id="EDmKbzJHREeL66DPp48K-23" value="Gateway&lt;br&gt;(Entry Point)" style="rounded=0;whiteSpace=wrap;html=1;" vertex="1" parent="1">
          <mxGeometry x="240" y="400" width="80" height="80" as="geometry" />
        </mxCell>
        <mxCell id="EDmKbzJHREeL66DPp48K-28" value="" style="endArrow=classic;startArrow=classic;html=1;rounded=0;entryX=0;entryY=0.5;entryDx=0;entryDy=0;" edge="1" parent="1" target="EDmKbzJHREeL66DPp48K-23">
          <mxGeometry width="50" height="50" relative="1" as="geometry">
            <mxPoint x="160" y="430" as="sourcePoint" />
            <mxPoint x="210" y="380" as="targetPoint" />
            <Array as="points">
              <mxPoint x="190" y="440" />
            </Array>
          </mxGeometry>
        </mxCell>
        <mxCell id="EDmKbzJHREeL66DPp48K-49" style="edgeStyle=orthogonalEdgeStyle;rounded=0;orthogonalLoop=1;jettySize=auto;html=1;exitX=1;exitY=0.5;exitDx=0;exitDy=0;entryX=0;entryY=0.5;entryDx=0;entryDy=0;" edge="1" parent="1" source="EDmKbzJHREeL66DPp48K-33" target="EDmKbzJHREeL66DPp48K-12">
          <mxGeometry relative="1" as="geometry" />
        </mxCell>
        <mxCell id="EDmKbzJHREeL66DPp48K-33" value="Verifier" style="rounded=0;whiteSpace=wrap;html=1;" vertex="1" parent="1">
          <mxGeometry x="60" y="120" width="80" height="80" as="geometry" />
        </mxCell>
        <mxCell id="EDmKbzJHREeL66DPp48K-36" value="Primary skill" style="rounded=1;whiteSpace=wrap;html=1;" vertex="1" parent="1">
          <mxGeometry x="240" y="820" width="120" height="60" as="geometry" />
        </mxCell>
        <mxCell id="EDmKbzJHREeL66DPp48K-37" value="same as" style="text;html=1;strokeColor=none;fillColor=none;align=center;verticalAlign=middle;whiteSpace=wrap;rounded=0;" vertex="1" parent="1">
          <mxGeometry x="170" y="835" width="60" height="30" as="geometry" />
        </mxCell>
        <mxCell id="EDmKbzJHREeL66DPp48K-44" value="Trait &lt;br&gt;Registry" style="rounded=0;whiteSpace=wrap;html=1;" vertex="1" parent="1">
          <mxGeometry x="220" y="300" width="120" height="60" as="geometry" />
        </mxCell>
        <mxCell id="EDmKbzJHREeL66DPp48K-46" value="Exchange deadline" style="rounded=1;whiteSpace=wrap;html=1;" vertex="1" parent="1">
          <mxGeometry x="240" y="900" width="120" height="60" as="geometry" />
        </mxCell>
        <mxCell id="EDmKbzJHREeL66DPp48K-52" value="" style="rounded=0;whiteSpace=wrap;html=1;" vertex="1" parent="1">
          <mxGeometry x="420" y="395" width="280" height="90" as="geometry" />
        </mxCell>
        <mxCell id="EDmKbzJHREeL66DPp48K-47" value="Note: set by organizer" style="text;html=1;strokeColor=none;fillColor=none;align=center;verticalAlign=middle;whiteSpace=wrap;rounded=0;" vertex="1" parent="1">
          <mxGeometry x="240" y="970" width="120" height="30" as="geometry" />
        </mxCell>
        <mxCell id="EDmKbzJHREeL66DPp48K-51" value="" style="endArrow=classic;startArrow=classic;html=1;rounded=0;exitX=0.5;exitY=0;exitDx=0;exitDy=0;entryX=0.5;entryY=1;entryDx=0;entryDy=0;" edge="1" parent="1" source="EDmKbzJHREeL66DPp48K-44" target="EDmKbzJHREeL66DPp48K-12">
          <mxGeometry width="50" height="50" relative="1" as="geometry">
            <mxPoint x="240" y="240" as="sourcePoint" />
            <mxPoint x="290" y="190" as="targetPoint" />
          </mxGeometry>
        </mxCell>
        <mxCell id="EDmKbzJHREeL66DPp48K-53" value="Criteria &lt;br&gt;filter" style="ellipse;whiteSpace=wrap;html=1;aspect=fixed;" vertex="1" parent="1">
          <mxGeometry x="620" y="400" width="80" height="80" as="geometry" />
        </mxCell>
        <mxCell id="EDmKbzJHREeL66DPp48K-54" value="Criteria &lt;br&gt;filter" style="ellipse;whiteSpace=wrap;html=1;aspect=fixed;" vertex="1" parent="1">
          <mxGeometry x="420" y="400" width="80" height="80" as="geometry" />
        </mxCell>
        <mxCell id="EDmKbzJHREeL66DPp48K-18" value="Criteria &lt;br&gt;filter" style="ellipse;whiteSpace=wrap;html=1;aspect=fixed;" vertex="1" parent="1">
          <mxGeometry x="520" y="400" width="80" height="80" as="geometry" />
        </mxCell>
        <mxCell id="EDmKbzJHREeL66DPp48K-58" style="edgeStyle=orthogonalEdgeStyle;rounded=0;orthogonalLoop=1;jettySize=auto;html=1;exitX=0.5;exitY=0;exitDx=0;exitDy=0;entryX=0.5;entryY=1;entryDx=0;entryDy=0;" edge="1" parent="1" source="EDmKbzJHREeL66DPp48K-56" target="EDmKbzJHREeL66DPp48K-52">
          <mxGeometry relative="1" as="geometry" />
        </mxCell>
        <mxCell id="EDmKbzJHREeL66DPp48K-56" value="Filters executor" style="rounded=0;whiteSpace=wrap;html=1;" vertex="1" parent="1">
          <mxGeometry x="400" y="540" width="120" height="60" as="geometry" />
        </mxCell>
        <mxCell id="EDmKbzJHREeL66DPp48K-59" value="In the next chapter!" style="rounded=0;whiteSpace=wrap;html=1;" vertex="1" parent="1">
          <mxGeometry x="200" y="660" width="120" height="60" as="geometry" />
        </mxCell>
        <mxCell id="EDmKbzJHREeL66DPp48K-62" value="Squeezer" style="rounded=0;whiteSpace=wrap;html=1;" vertex="1" parent="1">
          <mxGeometry x="60" y="580" width="80" height="60" as="geometry" />
        </mxCell>
      </root>
    </mxGraphModel>
  </diagram>
</mxfile>
